G04 #@! TF.FileFunction,Copper,L4,Bot,Signal*
%FSLAX46Y46*%
G04 Gerber Fmt 4.6, Leading zero omitted, Abs format (unit mm)*
G04 Created by KiCad (PCBNEW 4.0.4-stable) date Wednesday, November 08, 2017 'PMt' 04:38:46 PM*
%MOMM*%
%LPD*%
G01*
G04 APERTURE LIST*
%ADD10C,0.100000*%
%ADD11C,1.500000*%
%ADD12C,1.524000*%
%ADD13R,2.032000X2.032000*%
%ADD14O,2.032000X2.032000*%
%ADD15C,1.000000*%
%ADD16R,1.727200X2.032000*%
%ADD17O,1.727200X2.032000*%
%ADD18R,2.032000X1.727200*%
%ADD19O,2.032000X1.727200*%
%ADD20C,0.600000*%
%ADD21C,0.250000*%
G04 APERTURE END LIST*
D10*
D11*
X128750000Y-104500000D03*
X128750000Y-101960000D03*
X128750000Y-99420000D03*
X128750000Y-96880000D03*
X128750000Y-94340000D03*
X128750000Y-91800000D03*
X128750000Y-89260000D03*
X128750000Y-86720000D03*
X121130000Y-86720000D03*
X121130000Y-89260000D03*
X121130000Y-91800000D03*
X121130000Y-94340000D03*
X121130000Y-96880000D03*
X121130000Y-99420000D03*
X121130000Y-101960000D03*
X121130000Y-104500000D03*
D12*
X85500000Y-62500000D03*
X87500000Y-62500000D03*
X103500000Y-62500000D03*
X105500000Y-62500000D03*
X121500000Y-62500000D03*
X123500000Y-62500000D03*
X139500000Y-62500000D03*
X141500000Y-62500000D03*
X157500000Y-62500000D03*
X159500000Y-62500000D03*
X175500000Y-62500000D03*
X177500000Y-62500000D03*
X193500000Y-62500000D03*
X195500000Y-62500000D03*
X211500000Y-62500000D03*
X213500000Y-62500000D03*
X85500000Y-68500000D03*
X87500000Y-68500000D03*
X103500000Y-68500000D03*
X105500000Y-68500000D03*
X121500000Y-68500000D03*
X123500000Y-68500000D03*
X139500000Y-68500000D03*
X141500000Y-68500000D03*
X157500000Y-68500000D03*
X159500000Y-68500000D03*
X175500000Y-68500000D03*
X177500000Y-68500000D03*
X193500000Y-68500000D03*
X195500000Y-68500000D03*
X211500000Y-68500000D03*
X213500000Y-68500000D03*
X93500000Y-56500000D03*
X95500000Y-56500000D03*
X111500000Y-56500000D03*
X113500000Y-56500000D03*
X129500000Y-56500000D03*
X131500000Y-56500000D03*
X147500000Y-56500000D03*
X149500000Y-56500000D03*
X165500000Y-56500000D03*
X167500000Y-56500000D03*
X183500000Y-56500000D03*
X185500000Y-56500000D03*
X201500000Y-56500000D03*
X203500000Y-56500000D03*
X219500000Y-56500000D03*
X221500000Y-56500000D03*
X93500000Y-62500000D03*
X95500000Y-62500000D03*
X111500000Y-62500000D03*
X113500000Y-62500000D03*
X129500000Y-62500000D03*
X131500000Y-62500000D03*
X147500000Y-62500000D03*
X149500000Y-62500000D03*
X165500000Y-62500000D03*
X167500000Y-62500000D03*
X183500000Y-62500000D03*
X185500000Y-62500000D03*
X201500000Y-62500000D03*
X203500000Y-62500000D03*
X219500000Y-62500000D03*
X221500000Y-62500000D03*
X93500000Y-68500000D03*
X95500000Y-68500000D03*
X111500000Y-68500000D03*
X113500000Y-68500000D03*
X129500000Y-68500000D03*
X131500000Y-68500000D03*
X147500000Y-68500000D03*
X149500000Y-68500000D03*
X165500000Y-68500000D03*
X167500000Y-68500000D03*
X183500000Y-68500000D03*
X185500000Y-68500000D03*
X201500000Y-68500000D03*
X203500000Y-68500000D03*
X219500000Y-68500000D03*
X221500000Y-68500000D03*
X85500000Y-56500000D03*
X87500000Y-56500000D03*
X103500000Y-56500000D03*
X105500000Y-56500000D03*
X121500000Y-56500000D03*
X123500000Y-56500000D03*
X139500000Y-56500000D03*
X141500000Y-56500000D03*
X157500000Y-56500000D03*
X159500000Y-56500000D03*
X175500000Y-56500000D03*
X177500000Y-56500000D03*
X193500000Y-56500000D03*
X195500000Y-56500000D03*
X211500000Y-56500000D03*
X213500000Y-56500000D03*
D13*
X90000000Y-128000000D03*
D14*
X90000000Y-125460000D03*
D11*
X156500000Y-104500000D03*
X156500000Y-101960000D03*
X156500000Y-99420000D03*
X156500000Y-96880000D03*
X156500000Y-94340000D03*
X156500000Y-91800000D03*
X156500000Y-89260000D03*
X156500000Y-86720000D03*
X148880000Y-86720000D03*
X148880000Y-89260000D03*
X148880000Y-91800000D03*
X148880000Y-94340000D03*
X148880000Y-96880000D03*
X148880000Y-99420000D03*
X148880000Y-101960000D03*
X148880000Y-104500000D03*
X184250000Y-104500000D03*
X184250000Y-101960000D03*
X184250000Y-99420000D03*
X184250000Y-96880000D03*
X184250000Y-94340000D03*
X184250000Y-91800000D03*
X184250000Y-89260000D03*
X184250000Y-86720000D03*
X176630000Y-86720000D03*
X176630000Y-89260000D03*
X176630000Y-91800000D03*
X176630000Y-94340000D03*
X176630000Y-96880000D03*
X176630000Y-99420000D03*
X176630000Y-101960000D03*
X176630000Y-104500000D03*
X211500000Y-104500000D03*
X211500000Y-101960000D03*
X211500000Y-99420000D03*
X211500000Y-96880000D03*
X211500000Y-94340000D03*
X211500000Y-91800000D03*
X211500000Y-89260000D03*
X211500000Y-86720000D03*
X203880000Y-86720000D03*
X203880000Y-89260000D03*
X203880000Y-91800000D03*
X203880000Y-94340000D03*
X203880000Y-96880000D03*
X203880000Y-99420000D03*
X203880000Y-101960000D03*
X203880000Y-104500000D03*
X203250000Y-130000000D03*
X203250000Y-127460000D03*
X203250000Y-124920000D03*
X203250000Y-122380000D03*
X203250000Y-119840000D03*
X203250000Y-117300000D03*
X203250000Y-114760000D03*
X203250000Y-112220000D03*
X195630000Y-112220000D03*
X195630000Y-114760000D03*
X195630000Y-117300000D03*
X195630000Y-119840000D03*
X195630000Y-122380000D03*
X195630000Y-124920000D03*
X195630000Y-127460000D03*
X195630000Y-130000000D03*
X101000000Y-104500000D03*
X101000000Y-101960000D03*
X101000000Y-99420000D03*
X101000000Y-96880000D03*
X101000000Y-94340000D03*
X101000000Y-91800000D03*
X101000000Y-89260000D03*
X101000000Y-86720000D03*
X93380000Y-86720000D03*
X93380000Y-89260000D03*
X93380000Y-91800000D03*
X93380000Y-94340000D03*
X93380000Y-96880000D03*
X93380000Y-99420000D03*
X93380000Y-101960000D03*
X93380000Y-104500000D03*
D15*
X113000000Y-129500000D03*
X113000000Y-126960000D03*
X113000000Y-124420000D03*
X113000000Y-121880000D03*
X113000000Y-119340000D03*
X113000000Y-116800000D03*
X113000000Y-114260000D03*
X113000000Y-111720000D03*
X104200000Y-111720000D03*
X104200000Y-114260000D03*
X104200000Y-116800000D03*
X104200000Y-119340000D03*
X104200000Y-121880000D03*
X104200000Y-124420000D03*
X104200000Y-126960000D03*
X104200000Y-129500000D03*
X143750000Y-129500000D03*
X143750000Y-126960000D03*
X143750000Y-124420000D03*
X143750000Y-121880000D03*
X143750000Y-119340000D03*
X143750000Y-116800000D03*
X143750000Y-114260000D03*
X143750000Y-111720000D03*
X134950000Y-111720000D03*
X134950000Y-114260000D03*
X134950000Y-116800000D03*
X134950000Y-119340000D03*
X134950000Y-121880000D03*
X134950000Y-124420000D03*
X134950000Y-126960000D03*
X134950000Y-129500000D03*
X174500000Y-129500000D03*
X174500000Y-126960000D03*
X174500000Y-124420000D03*
X174500000Y-121880000D03*
X174500000Y-119340000D03*
X174500000Y-116800000D03*
X174500000Y-114260000D03*
X174500000Y-111720000D03*
X165700000Y-111720000D03*
X165700000Y-114260000D03*
X165700000Y-116800000D03*
X165700000Y-119340000D03*
X165700000Y-121880000D03*
X165700000Y-124420000D03*
X165700000Y-126960000D03*
X165700000Y-129500000D03*
D16*
X172100000Y-138100000D03*
D17*
X169560000Y-138100000D03*
X167020000Y-138100000D03*
X164480000Y-138100000D03*
X161940000Y-138100000D03*
X159400000Y-138100000D03*
X156860000Y-138100000D03*
X154320000Y-138100000D03*
X151780000Y-138100000D03*
X149240000Y-138100000D03*
X146700000Y-138100000D03*
X144160000Y-138100000D03*
X141620000Y-138100000D03*
X139080000Y-138100000D03*
X136540000Y-138100000D03*
X134000000Y-138100000D03*
X131460000Y-138100000D03*
X128920000Y-138100000D03*
D18*
X86100000Y-76200000D03*
D19*
X86100000Y-78740000D03*
X86100000Y-81280000D03*
X86100000Y-83820000D03*
X86100000Y-86360000D03*
X86100000Y-88900000D03*
X86100000Y-91440000D03*
X86100000Y-93980000D03*
X86100000Y-96520000D03*
X86100000Y-99060000D03*
X86100000Y-101600000D03*
X86100000Y-104140000D03*
D20*
X157700000Y-78000000D03*
X186700000Y-79000000D03*
X188000000Y-83900000D03*
X191700000Y-86600000D03*
X191600000Y-89500000D03*
X195500000Y-92000000D03*
X195500000Y-95500000D03*
X196000000Y-101100000D03*
X191600000Y-105200000D03*
X165100000Y-84000000D03*
X165600000Y-86400000D03*
X168200000Y-94000000D03*
X168700000Y-97300000D03*
X174600000Y-104100000D03*
X168800000Y-101200000D03*
X199000000Y-98200000D03*
X201700000Y-103000000D03*
X207300000Y-79700000D03*
X210200000Y-82800000D03*
X222600000Y-94200000D03*
X223100000Y-96700000D03*
X224000000Y-101100000D03*
X212600000Y-112500000D03*
X215900000Y-121600000D03*
X215900000Y-125300000D03*
X188700000Y-110000000D03*
X189800000Y-117900000D03*
X191900000Y-126700000D03*
X186500000Y-133000000D03*
X92200000Y-109500000D03*
X161400000Y-125200000D03*
X147600000Y-125500000D03*
X162500000Y-118700000D03*
X152600000Y-112400000D03*
X147000000Y-110400000D03*
X146600000Y-100200000D03*
X141300000Y-87500000D03*
X141300000Y-90700000D03*
X141300000Y-93400000D03*
X141300000Y-96400000D03*
X140400000Y-104000000D03*
X140400000Y-101100000D03*
X129200000Y-126100000D03*
X117800000Y-126100000D03*
X121900000Y-113700000D03*
X118600000Y-110100000D03*
X116000000Y-98700000D03*
X112100000Y-103300000D03*
X109800000Y-108300000D03*
X112700000Y-99600000D03*
X112500000Y-96800000D03*
X113300000Y-93200000D03*
X112800000Y-90100000D03*
X112800000Y-87000000D03*
X119600000Y-81300000D03*
X120800000Y-82800000D03*
X95000000Y-79500000D03*
X104900000Y-89200000D03*
X92900000Y-85100000D03*
X107400000Y-92700000D03*
X98000000Y-97600000D03*
X91300000Y-100600000D03*
X113650000Y-88600000D03*
X128750000Y-91800000D03*
X156900000Y-122400000D03*
X156900000Y-124100000D03*
X140000000Y-108600000D03*
X111400000Y-107200000D03*
X107000000Y-109100000D03*
X105600000Y-109100000D03*
X151000000Y-96700000D03*
X171800000Y-121900000D03*
X170300000Y-125300000D03*
X198000000Y-135700000D03*
X199200000Y-127800000D03*
X200900000Y-126100000D03*
X200900000Y-111900000D03*
X190900000Y-91300000D03*
X93900000Y-114800000D03*
X205600000Y-134100000D03*
X222900000Y-120300000D03*
X215400000Y-92600000D03*
X88600000Y-109200000D03*
X207100000Y-118400000D03*
X137700000Y-126900000D03*
X207200000Y-92150000D03*
X207150000Y-94500000D03*
X208200000Y-104400000D03*
X209000000Y-108550000D03*
X195600000Y-94400000D03*
X192450000Y-94700000D03*
X179500000Y-93450000D03*
X179000000Y-90250000D03*
X163100000Y-89800000D03*
X172800000Y-93600000D03*
X164450000Y-89800000D03*
X141250000Y-99000000D03*
X139500000Y-99000000D03*
X119650000Y-88000000D03*
X111400000Y-82050000D03*
X99750000Y-85800000D03*
X91250000Y-88000000D03*
X149600000Y-124000000D03*
X198200000Y-112900000D03*
X200250000Y-109800000D03*
X201700000Y-109800000D03*
X208350000Y-102550000D03*
X209450000Y-89250000D03*
X181900000Y-86800000D03*
X186950000Y-86500000D03*
X167250000Y-85300000D03*
X161800000Y-85700000D03*
X125100000Y-87100000D03*
X125400000Y-89600000D03*
X127450000Y-90400000D03*
X141650000Y-89250000D03*
X113250000Y-78700000D03*
X95650000Y-87950000D03*
X96050000Y-84300000D03*
X99900000Y-84300000D03*
X90350000Y-84700000D03*
X200750000Y-87050000D03*
X201750000Y-96050000D03*
X201750000Y-97900000D03*
X154250000Y-85650000D03*
X156150000Y-84100000D03*
X163000000Y-81500000D03*
X168750000Y-82900000D03*
X123100000Y-85350000D03*
X139250000Y-86050000D03*
X141400000Y-86150000D03*
X111450000Y-79300000D03*
X118200000Y-82600000D03*
X118250000Y-80300000D03*
X107350000Y-80750000D03*
X108700000Y-81500000D03*
X102500000Y-81800000D03*
X96100000Y-76200000D03*
X91250000Y-84500000D03*
X106200000Y-126600000D03*
X119100000Y-121400000D03*
X116500000Y-115000000D03*
X118750000Y-87250000D03*
X90000000Y-65250000D03*
X90000000Y-67000000D03*
X97250000Y-73750000D03*
X100250000Y-73750000D03*
X109250000Y-78500000D03*
X123500000Y-76500000D03*
X126250000Y-75000000D03*
X143750000Y-76000000D03*
X123250000Y-90250000D03*
X127500000Y-88000000D03*
X162000000Y-75000000D03*
X179500000Y-71500000D03*
X153750000Y-71500000D03*
X149500000Y-75750000D03*
X198750000Y-74250000D03*
X155000000Y-76000000D03*
X152500000Y-76000000D03*
X216000000Y-71250000D03*
X154000000Y-77000000D03*
X149750000Y-77000000D03*
X108000000Y-117800000D03*
X106800000Y-116600000D03*
X148000000Y-83500000D03*
X141250000Y-80750000D03*
X130500000Y-77750000D03*
X110750000Y-77250000D03*
X101750000Y-72000000D03*
X88250000Y-72000000D03*
X153000000Y-78250000D03*
X142750000Y-77750000D03*
X130500000Y-76000000D03*
X119500000Y-67250000D03*
X156000000Y-82750000D03*
X142500000Y-79500000D03*
X132250000Y-76750000D03*
X126500000Y-69500000D03*
X156250000Y-69750000D03*
X160000000Y-78000000D03*
X150000000Y-93000000D03*
X154250000Y-92000000D03*
X163750000Y-69250000D03*
X163500000Y-103000000D03*
X174000000Y-78750000D03*
X192750000Y-78000000D03*
X207750000Y-69750000D03*
X206250000Y-71250000D03*
X189250000Y-71250000D03*
X175250000Y-79250000D03*
X91600000Y-59200000D03*
X92000000Y-71200000D03*
X92000000Y-72800000D03*
X109600000Y-116600000D03*
X99000000Y-59250000D03*
X170500000Y-59250000D03*
X171250000Y-85950000D03*
X163000000Y-77750000D03*
X172750000Y-78750000D03*
X178000000Y-82750000D03*
X175750000Y-80000000D03*
X189000000Y-78750000D03*
X188000000Y-75000000D03*
X183800000Y-75000000D03*
X178750000Y-57750000D03*
X166500000Y-57750000D03*
X163750000Y-57750000D03*
X148500000Y-57750000D03*
X146250000Y-57750000D03*
X154250000Y-63750000D03*
X164250000Y-63750000D03*
X166500000Y-63750000D03*
X181750000Y-63750000D03*
X188250000Y-71250000D03*
X197200000Y-78800000D03*
X196500000Y-72500000D03*
X182250000Y-88000000D03*
X169750000Y-65250000D03*
X174750000Y-65250000D03*
X176250000Y-66750000D03*
X192000000Y-68750000D03*
X192500000Y-75500000D03*
X196500000Y-75500000D03*
X197250000Y-79750000D03*
X195000000Y-81750000D03*
X195750000Y-76250000D03*
X199500000Y-74750000D03*
X199000000Y-57750000D03*
X196250000Y-82500000D03*
X200250000Y-91250000D03*
X195250000Y-98750000D03*
X96600000Y-65200000D03*
X139600000Y-122200000D03*
X138200000Y-120800000D03*
X117200000Y-119400000D03*
X114800000Y-110400000D03*
X112200000Y-105800000D03*
X98200000Y-66800000D03*
X101600000Y-69000000D03*
X196750000Y-69750000D03*
X184500000Y-69750000D03*
X181750000Y-69750000D03*
X169750000Y-66750000D03*
X168250000Y-65250000D03*
X154250000Y-65250000D03*
X144750000Y-63750000D03*
X130500000Y-63750000D03*
X127750000Y-63750000D03*
X112500000Y-63750000D03*
X110000000Y-63750000D03*
X198000000Y-79250000D03*
X205750000Y-63750000D03*
X204250000Y-63750000D03*
X200250000Y-63750000D03*
X176000000Y-60750000D03*
X173750000Y-60750000D03*
X158250000Y-60750000D03*
X156250000Y-60750000D03*
X150250000Y-60750000D03*
X137750000Y-60750000D03*
X130500000Y-60750000D03*
X119250000Y-61000000D03*
X207250000Y-78250000D03*
X134500000Y-54250000D03*
X216750000Y-54500000D03*
X216750000Y-65250000D03*
X214750000Y-65750000D03*
X211500000Y-78250000D03*
X136250000Y-52500000D03*
X134500000Y-56000000D03*
X155750000Y-62500000D03*
X160750000Y-67250000D03*
X170500000Y-69750000D03*
X170500000Y-75000000D03*
X209000000Y-85000000D03*
X172000000Y-75000000D03*
X208750000Y-91750000D03*
X173750000Y-77750000D03*
X218500000Y-104000000D03*
X177500000Y-78250000D03*
X173250000Y-63000000D03*
X219500000Y-72000000D03*
X216750000Y-69250000D03*
X190500000Y-65250000D03*
X190250000Y-63750000D03*
X218250000Y-63750000D03*
X222750000Y-71750000D03*
X225000000Y-64750000D03*
X225700000Y-90700000D03*
X223250000Y-93250000D03*
X154000000Y-113400000D03*
X96400000Y-72800000D03*
X108600000Y-104600000D03*
X110400000Y-107400000D03*
X94100000Y-77450000D03*
X174750000Y-106500000D03*
X95000000Y-98650000D03*
X95500000Y-71250000D03*
X95500000Y-72750000D03*
X172000000Y-107750000D03*
X115000000Y-107750000D03*
X113000000Y-103000000D03*
X114300000Y-89550000D03*
X114250000Y-81500000D03*
X114250000Y-79300000D03*
X114250000Y-71250000D03*
X114250000Y-73250000D03*
X114250000Y-76500000D03*
X138000000Y-69250000D03*
X142750000Y-103700000D03*
X143750000Y-108750000D03*
X172000000Y-108750000D03*
X178750000Y-101000000D03*
X166000000Y-85000000D03*
X162500000Y-85000000D03*
X142000000Y-85000000D03*
X146500000Y-77000000D03*
X197400000Y-105800000D03*
X180200000Y-97200000D03*
X178800000Y-88000000D03*
X189000000Y-72750000D03*
X187250000Y-72500000D03*
X207200000Y-102400000D03*
X206000000Y-95200000D03*
X206000000Y-83400000D03*
X227300000Y-90300000D03*
X212500000Y-75500000D03*
X203500000Y-74750000D03*
X223500000Y-69100000D03*
X226600000Y-72100000D03*
X89700000Y-91850000D03*
X100500000Y-71250000D03*
X118500000Y-71250000D03*
X136000000Y-71500000D03*
X104000000Y-88000000D03*
X153500000Y-75000000D03*
X127750000Y-84250000D03*
X122750000Y-84250000D03*
X172000000Y-72500000D03*
X191250000Y-74250000D03*
X208500000Y-71500000D03*
X151400000Y-112200000D03*
X152400000Y-110400000D03*
X179800000Y-103200000D03*
X185600000Y-113600000D03*
X190600000Y-128200000D03*
X109500000Y-113500000D03*
X111750000Y-115000000D03*
X107500000Y-113200000D03*
X113800000Y-115700000D03*
X124900000Y-121500000D03*
X124900000Y-117200000D03*
X144800000Y-118100000D03*
X152900000Y-122100000D03*
X153700000Y-124800000D03*
X159600000Y-114700000D03*
X157500000Y-116000000D03*
X155900000Y-122300000D03*
X155900000Y-124100000D03*
D21*
X191600000Y-89500000D02*
X191400000Y-89500000D01*
X165100000Y-84000000D02*
X165100000Y-85900000D01*
X165100000Y-85900000D02*
X165600000Y-86400000D01*
X163140000Y-119340000D02*
X165700000Y-119340000D01*
X162500000Y-118700000D02*
X163140000Y-119340000D01*
X121900000Y-113700000D02*
X121900000Y-113600000D01*
X119600000Y-81600000D02*
X119600000Y-81300000D01*
X120800000Y-82800000D02*
X119600000Y-81600000D01*
X104900000Y-87500000D02*
X104900000Y-89200000D01*
X102500000Y-85100000D02*
X104900000Y-87500000D01*
X92900000Y-85100000D02*
X102500000Y-85100000D01*
X105300000Y-92700000D02*
X107400000Y-92700000D01*
X102400000Y-95600000D02*
X105300000Y-92700000D01*
X100000000Y-95600000D02*
X102400000Y-95600000D01*
X98000000Y-97600000D02*
X100000000Y-95600000D01*
X90600000Y-99900000D02*
X91300000Y-100600000D01*
X90600000Y-96900000D02*
X90600000Y-99900000D01*
X89000000Y-95300000D02*
X90600000Y-96900000D01*
X89000000Y-89600000D02*
X89000000Y-95300000D01*
X86100000Y-86700000D02*
X89000000Y-89600000D01*
X128050000Y-91100000D02*
X122500000Y-91100000D01*
X122500000Y-91100000D02*
X121900000Y-90500000D01*
X121900000Y-90500000D02*
X120100000Y-90500000D01*
X128050000Y-91100000D02*
X128750000Y-91800000D01*
X119450000Y-89850000D02*
X120100000Y-90500000D01*
X119450000Y-88850000D02*
X119450000Y-89850000D01*
X119200000Y-88600000D02*
X119450000Y-88850000D01*
X113650000Y-88600000D02*
X119200000Y-88600000D01*
X86100000Y-86360000D02*
X86100000Y-86700000D01*
X156900000Y-124100000D02*
X156900000Y-122400000D01*
X114800000Y-108600000D02*
X140000000Y-108600000D01*
X113400000Y-107200000D02*
X114800000Y-108600000D01*
X111400000Y-107200000D02*
X113400000Y-107200000D01*
X105600000Y-109100000D02*
X107000000Y-109100000D01*
X151000000Y-96700000D02*
X155900000Y-91800000D01*
X155900000Y-91800000D02*
X156500000Y-91800000D01*
X171800000Y-123800000D02*
X171800000Y-121900000D01*
X170300000Y-125300000D02*
X171800000Y-123800000D01*
X87600000Y-92940000D02*
X86100000Y-91440000D01*
X87600000Y-129300000D02*
X87600000Y-92940000D01*
X94900000Y-136600000D02*
X87600000Y-129300000D01*
X197100000Y-136600000D02*
X94900000Y-136600000D01*
X198000000Y-135700000D02*
X197100000Y-136600000D01*
X200900000Y-126100000D02*
X199200000Y-127800000D01*
X200900000Y-107900000D02*
X200900000Y-111900000D01*
X194500000Y-101500000D02*
X200900000Y-107900000D01*
X194500000Y-94900000D02*
X194500000Y-101500000D01*
X190900000Y-91300000D02*
X194500000Y-94900000D01*
X93900000Y-114800000D02*
X93900000Y-131100000D01*
X93900000Y-131100000D02*
X96900000Y-134100000D01*
X96900000Y-134100000D02*
X205600000Y-134100000D01*
X222900000Y-120300000D02*
X214400000Y-111800000D01*
X214400000Y-111800000D02*
X214400000Y-94900000D01*
X214400000Y-94900000D02*
X215400000Y-92600000D01*
X88600000Y-109200000D02*
X92300000Y-112900000D01*
X92300000Y-112900000D02*
X92300000Y-132100000D01*
X92300000Y-132100000D02*
X95200000Y-135000000D01*
X95200000Y-135000000D02*
X206500000Y-135000000D01*
X206500000Y-135000000D02*
X207100000Y-134400000D01*
X207100000Y-134400000D02*
X207100000Y-118400000D01*
X136800000Y-116110000D02*
X134950000Y-114260000D01*
X136800000Y-126000000D02*
X136800000Y-116110000D01*
X137700000Y-126900000D02*
X136800000Y-126000000D01*
X206850000Y-91800000D02*
X203880000Y-91800000D01*
X207200000Y-92150000D02*
X206850000Y-91800000D01*
X209050000Y-96400000D02*
X207150000Y-94500000D01*
X209050000Y-103550000D02*
X209050000Y-96400000D01*
X208200000Y-104400000D02*
X209050000Y-103550000D01*
X209000000Y-111900000D02*
X209000000Y-108550000D01*
X204900000Y-116000000D02*
X209000000Y-111900000D01*
X202600000Y-116000000D02*
X204900000Y-116000000D01*
X201300000Y-117300000D02*
X202600000Y-116000000D01*
X195630000Y-117300000D02*
X201300000Y-117300000D01*
X201980000Y-89900000D02*
X203880000Y-91800000D01*
X200100000Y-89900000D02*
X201980000Y-89900000D01*
X195600000Y-94400000D02*
X200100000Y-89900000D01*
X192300000Y-94850000D02*
X192450000Y-94700000D01*
X187700000Y-94850000D02*
X192300000Y-94850000D01*
X187050000Y-95500000D02*
X187700000Y-94850000D01*
X181550000Y-95500000D02*
X187050000Y-95500000D01*
X179500000Y-93450000D02*
X181550000Y-95500000D01*
X177450000Y-91800000D02*
X179000000Y-90250000D01*
X176630000Y-91800000D02*
X177450000Y-91800000D01*
X150150000Y-90550000D02*
X159700000Y-90550000D01*
X159700000Y-90550000D02*
X160450000Y-89800000D01*
X160450000Y-89800000D02*
X163100000Y-89800000D01*
X148900000Y-91800000D02*
X150150000Y-90550000D01*
X171200000Y-93600000D02*
X172800000Y-93600000D01*
X167400000Y-89800000D02*
X171200000Y-93600000D01*
X164450000Y-89800000D02*
X167400000Y-89800000D01*
X148880000Y-91800000D02*
X148900000Y-91800000D01*
X121130000Y-91800000D02*
X121150000Y-91800000D01*
X121150000Y-91800000D02*
X127500000Y-98150000D01*
X141250000Y-99000000D02*
X148450000Y-91800000D01*
X133100000Y-99000000D02*
X139500000Y-99000000D01*
X132250000Y-98150000D02*
X133100000Y-99000000D01*
X127500000Y-98150000D02*
X132250000Y-98150000D01*
X148450000Y-91800000D02*
X148880000Y-91800000D01*
X93380000Y-91800000D02*
X93400000Y-91800000D01*
X93400000Y-91800000D02*
X99400000Y-85800000D01*
X117350000Y-88000000D02*
X119650000Y-88000000D01*
X111400000Y-82050000D02*
X117350000Y-88000000D01*
X99400000Y-85800000D02*
X99750000Y-85800000D01*
X86100000Y-81280000D02*
X86100000Y-81350000D01*
X86100000Y-81350000D02*
X91250000Y-86500000D01*
X91250000Y-86500000D02*
X91250000Y-88000000D01*
X146500000Y-117010000D02*
X143750000Y-114260000D01*
X146500000Y-120900000D02*
X146500000Y-117010000D01*
X149600000Y-124000000D02*
X146500000Y-120900000D01*
X198200000Y-111850000D02*
X198200000Y-112900000D01*
X200250000Y-109800000D02*
X198200000Y-111850000D01*
X201700000Y-109200000D02*
X201700000Y-109800000D01*
X208350000Y-102550000D02*
X201700000Y-109200000D01*
X209460000Y-89260000D02*
X209450000Y-89250000D01*
X203880000Y-89260000D02*
X209460000Y-89260000D01*
X179440000Y-89260000D02*
X176630000Y-89260000D01*
X181900000Y-86800000D02*
X179440000Y-89260000D01*
X188250000Y-87800000D02*
X186950000Y-86500000D01*
X199600000Y-87800000D02*
X188250000Y-87800000D01*
X201060000Y-89260000D02*
X199600000Y-87800000D01*
X203880000Y-89260000D02*
X201060000Y-89260000D01*
X148880000Y-89260000D02*
X154490000Y-89260000D01*
X171210000Y-89260000D02*
X176630000Y-89260000D01*
X167250000Y-85300000D02*
X171210000Y-89260000D01*
X161000000Y-85700000D02*
X161800000Y-85700000D01*
X159200000Y-88000000D02*
X161000000Y-85700000D01*
X155750000Y-88000000D02*
X159200000Y-88000000D01*
X154490000Y-89260000D02*
X155750000Y-88000000D01*
X148880000Y-89260000D02*
X141660000Y-89260000D01*
X124100000Y-86100000D02*
X122700000Y-86100000D01*
X125100000Y-87100000D02*
X124100000Y-86100000D01*
X126650000Y-89600000D02*
X125400000Y-89600000D01*
X127450000Y-90400000D02*
X126650000Y-89600000D01*
X141660000Y-89260000D02*
X141650000Y-89250000D01*
X121140000Y-89260000D02*
X122700000Y-87700000D01*
X122700000Y-87700000D02*
X122700000Y-86100000D01*
X122700000Y-86100000D02*
X116700000Y-80100000D01*
X116700000Y-80100000D02*
X115050000Y-78650000D01*
X115050000Y-78650000D02*
X113250000Y-78700000D01*
X94340000Y-89260000D02*
X93380000Y-89260000D01*
X95650000Y-87950000D02*
X94340000Y-89260000D01*
X99900000Y-84300000D02*
X96050000Y-84300000D01*
X121130000Y-89260000D02*
X121140000Y-89260000D01*
X90350000Y-84700000D02*
X88150000Y-82350000D01*
X88150000Y-82350000D02*
X88150000Y-80790000D01*
X88150000Y-80790000D02*
X86100000Y-78740000D01*
X201080000Y-86720000D02*
X203880000Y-86720000D01*
X200750000Y-87050000D02*
X201080000Y-86720000D01*
X201750000Y-97900000D02*
X201750000Y-96050000D01*
X176630000Y-86720000D02*
X177930000Y-86720000D01*
X202710000Y-85550000D02*
X203880000Y-86720000D01*
X179100000Y-85550000D02*
X202710000Y-85550000D01*
X177930000Y-86720000D02*
X179100000Y-85550000D01*
X153180000Y-86720000D02*
X154250000Y-85650000D01*
X156150000Y-84100000D02*
X158750000Y-81500000D01*
X158750000Y-81500000D02*
X163000000Y-81500000D01*
X148880000Y-86720000D02*
X153180000Y-86720000D01*
X171070000Y-86720000D02*
X176630000Y-86720000D01*
X170000000Y-85650000D02*
X171070000Y-86720000D01*
X170000000Y-84150000D02*
X170000000Y-85650000D01*
X168750000Y-82900000D02*
X170000000Y-84150000D01*
X148880000Y-86720000D02*
X141970000Y-86720000D01*
X138550000Y-85350000D02*
X123100000Y-85350000D01*
X139250000Y-86050000D02*
X138550000Y-85350000D01*
X141970000Y-86720000D02*
X141400000Y-86150000D01*
X112750000Y-78000000D02*
X111450000Y-79300000D01*
X121130000Y-86680000D02*
X118200000Y-83750000D01*
X118200000Y-83750000D02*
X118200000Y-82600000D01*
X118250000Y-80300000D02*
X115750000Y-78000000D01*
X115750000Y-78000000D02*
X112750000Y-78000000D01*
X108100000Y-81500000D02*
X107350000Y-80750000D01*
X101700000Y-81800000D02*
X102500000Y-81800000D01*
X96100000Y-76200000D02*
X101700000Y-81800000D01*
X108700000Y-81500000D02*
X108100000Y-81500000D01*
X121130000Y-86720000D02*
X121130000Y-86680000D01*
X86100000Y-76200000D02*
X86700000Y-76200000D01*
X86700000Y-76200000D02*
X89850000Y-79350000D01*
X89850000Y-79350000D02*
X89850000Y-83100000D01*
X89850000Y-83100000D02*
X91250000Y-84500000D01*
X105500000Y-115560000D02*
X104200000Y-114260000D01*
X105500000Y-125900000D02*
X105500000Y-115560000D01*
X106200000Y-126600000D02*
X105500000Y-125900000D01*
X119100000Y-121400000D02*
X118100000Y-120400000D01*
X118100000Y-120400000D02*
X118100000Y-116600000D01*
X118100000Y-116600000D02*
X116500000Y-115000000D01*
X90000000Y-65250000D02*
X90000000Y-67000000D01*
X97250000Y-73750000D02*
X100250000Y-73750000D01*
X109250000Y-78500000D02*
X118750000Y-87250000D01*
X118750000Y-87250000D02*
X118750000Y-87250000D01*
X123500000Y-76500000D02*
X119500000Y-72500000D01*
X119500000Y-72500000D02*
X110750000Y-72500000D01*
X110750000Y-72500000D02*
X108000000Y-69750000D01*
X108000000Y-69750000D02*
X108000000Y-65000000D01*
X108000000Y-65000000D02*
X105500000Y-62500000D01*
X125250000Y-64250000D02*
X123500000Y-62500000D01*
X125250000Y-74000000D02*
X125250000Y-64250000D01*
X126250000Y-75000000D02*
X125250000Y-74000000D01*
X142750000Y-62500000D02*
X141500000Y-62500000D01*
X143750000Y-63500000D02*
X142750000Y-62500000D01*
X143750000Y-76000000D02*
X143750000Y-63500000D01*
X123250000Y-90250000D02*
X125500000Y-88000000D01*
X125500000Y-88000000D02*
X127500000Y-88000000D01*
X162000000Y-64500000D02*
X160000000Y-62500000D01*
X162000000Y-75000000D02*
X162000000Y-64500000D01*
X160000000Y-62500000D02*
X159500000Y-62500000D01*
X180250000Y-65250000D02*
X177500000Y-62500000D01*
X180250000Y-70750000D02*
X180250000Y-65250000D01*
X179500000Y-71500000D02*
X180250000Y-70750000D01*
X149500000Y-75750000D02*
X153750000Y-71500000D01*
X197000000Y-62500000D02*
X195500000Y-62500000D01*
X198750000Y-64000000D02*
X197000000Y-62500000D01*
X198750000Y-74250000D02*
X198750000Y-64000000D01*
X152500000Y-76000000D02*
X155000000Y-76000000D01*
X215000000Y-62500000D02*
X213500000Y-62500000D01*
X216000000Y-63500000D02*
X215000000Y-62500000D01*
X216000000Y-71250000D02*
X216000000Y-63500000D01*
X149750000Y-77000000D02*
X154000000Y-77000000D01*
X108000000Y-117800000D02*
X106800000Y-116600000D01*
X148000000Y-83500000D02*
X145250000Y-80750000D01*
X145250000Y-80750000D02*
X141250000Y-80750000D01*
X130500000Y-77750000D02*
X130000000Y-77250000D01*
X130000000Y-77250000D02*
X110750000Y-77250000D01*
X101750000Y-72000000D02*
X88250000Y-72000000D01*
X153000000Y-78250000D02*
X152500000Y-77750000D01*
X152500000Y-77750000D02*
X142750000Y-77750000D01*
X130500000Y-76000000D02*
X125000000Y-76000000D01*
X125000000Y-76000000D02*
X119500000Y-70500000D01*
X119500000Y-70500000D02*
X119500000Y-67250000D01*
X156000000Y-82750000D02*
X152750000Y-79500000D01*
X152750000Y-79500000D02*
X142500000Y-79500000D01*
X132250000Y-76750000D02*
X126500000Y-71000000D01*
X126500000Y-71000000D02*
X126500000Y-69500000D01*
X156250000Y-74250000D02*
X156250000Y-69750000D01*
X160000000Y-78000000D02*
X156250000Y-74250000D01*
X150000000Y-93000000D02*
X151000000Y-92000000D01*
X151000000Y-92000000D02*
X154250000Y-92000000D01*
X163750000Y-102750000D02*
X163750000Y-69250000D01*
X163500000Y-103000000D02*
X163750000Y-102750000D01*
X177500000Y-75250000D02*
X177500000Y-68500000D01*
X174000000Y-78750000D02*
X177500000Y-75250000D01*
X195500000Y-75250000D02*
X195500000Y-68500000D01*
X192750000Y-78000000D02*
X195500000Y-75250000D01*
X207750000Y-69750000D02*
X206750000Y-70750000D01*
X206750000Y-70750000D02*
X206250000Y-71250000D01*
X189250000Y-71250000D02*
X183900000Y-77500000D01*
X183900000Y-77500000D02*
X177000000Y-77500000D01*
X177000000Y-77500000D02*
X175250000Y-79250000D01*
X91600000Y-70800000D02*
X91600000Y-59200000D01*
X92000000Y-71200000D02*
X91600000Y-70800000D01*
X92000000Y-106400000D02*
X92000000Y-72800000D01*
X93800000Y-108200000D02*
X92000000Y-106400000D01*
X103200000Y-108200000D02*
X93800000Y-108200000D01*
X105400000Y-110400000D02*
X103200000Y-108200000D01*
X105400000Y-112400000D02*
X105400000Y-110400000D01*
X109600000Y-116600000D02*
X105400000Y-112400000D01*
X95500000Y-56500000D02*
X96250000Y-56500000D01*
X96250000Y-56500000D02*
X99000000Y-59250000D01*
X170500000Y-59250000D02*
X171250000Y-60000000D01*
X171250000Y-60000000D02*
X171250000Y-85950000D01*
X175750000Y-80000000D02*
X174000000Y-80000000D01*
X115250000Y-55250000D02*
X113500000Y-56500000D01*
X161750000Y-55000000D02*
X115250000Y-55250000D01*
X162750000Y-55750000D02*
X161750000Y-55000000D01*
X162750000Y-77500000D02*
X162750000Y-55750000D01*
X163000000Y-77750000D02*
X162750000Y-77500000D01*
X174000000Y-80000000D02*
X172750000Y-78750000D01*
X178000000Y-82750000D02*
X175750000Y-80500000D01*
X175750000Y-80500000D02*
X175750000Y-80000000D01*
X189000000Y-76000000D02*
X189000000Y-78750000D01*
X188000000Y-75000000D02*
X189000000Y-76000000D01*
X183750000Y-75000000D02*
X183800000Y-75000000D01*
X181000000Y-72250000D02*
X183750000Y-75000000D01*
X181000000Y-60000000D02*
X181000000Y-72250000D01*
X178750000Y-57750000D02*
X181000000Y-60000000D01*
X163750000Y-57750000D02*
X166500000Y-57750000D01*
X146250000Y-57750000D02*
X148500000Y-57750000D01*
X149500000Y-59000000D02*
X154250000Y-63750000D01*
X164250000Y-63750000D02*
X166500000Y-63750000D01*
X181750000Y-63750000D02*
X187500000Y-63750000D01*
X187500000Y-63750000D02*
X188250000Y-64750000D01*
X188250000Y-64750000D02*
X188250000Y-71250000D01*
X149500000Y-56500000D02*
X149500000Y-59000000D01*
X197250000Y-73500000D02*
X197200000Y-78800000D01*
X196500000Y-72500000D02*
X197250000Y-73500000D01*
X176630000Y-94340000D02*
X176630000Y-93620000D01*
X176630000Y-93620000D02*
X182250000Y-88000000D01*
X169000000Y-58000000D02*
X167500000Y-56500000D01*
X169000000Y-64500000D02*
X169000000Y-58000000D01*
X169750000Y-65250000D02*
X169000000Y-64500000D01*
X176250000Y-66750000D02*
X174750000Y-65250000D01*
X192000000Y-75000000D02*
X192000000Y-68750000D01*
X192500000Y-75500000D02*
X192000000Y-75000000D01*
X196500000Y-79000000D02*
X196500000Y-75500000D01*
X197250000Y-79750000D02*
X196500000Y-79000000D01*
X195000000Y-77000000D02*
X195000000Y-81750000D01*
X195750000Y-76250000D02*
X195000000Y-77000000D01*
X199500000Y-58250000D02*
X199500000Y-74750000D01*
X199000000Y-57750000D02*
X199500000Y-58250000D01*
X205000000Y-58000000D02*
X203500000Y-56500000D01*
X205000000Y-74600000D02*
X205000000Y-58000000D01*
X196250000Y-82500000D02*
X205000000Y-74600000D01*
X196750000Y-94750000D02*
X200250000Y-91250000D01*
X196750000Y-97250000D02*
X196750000Y-94750000D01*
X195250000Y-98750000D02*
X196750000Y-97250000D01*
X108400000Y-79400000D02*
X103800000Y-74800000D01*
X139600000Y-122200000D02*
X138200000Y-120800000D01*
X117200000Y-119400000D02*
X114800000Y-117000000D01*
X114800000Y-117000000D02*
X114800000Y-110400000D01*
X112200000Y-105800000D02*
X110600000Y-104200000D01*
X110600000Y-104200000D02*
X110600000Y-81600000D01*
X110600000Y-81600000D02*
X108400000Y-79400000D01*
X96600000Y-65200000D02*
X96600000Y-65200000D01*
X98200000Y-66800000D02*
X96600000Y-65200000D01*
X103800000Y-71200000D02*
X101600000Y-69000000D01*
X103800000Y-74800000D02*
X103800000Y-71200000D01*
X196750000Y-69750000D02*
X196750000Y-71250000D01*
X181750000Y-69750000D02*
X184500000Y-69750000D01*
X168250000Y-65250000D02*
X169750000Y-66750000D01*
X152250000Y-65250000D02*
X154250000Y-65250000D01*
X150750000Y-63750000D02*
X152250000Y-65250000D01*
X144750000Y-63750000D02*
X150750000Y-63750000D01*
X127750000Y-63750000D02*
X130500000Y-63750000D01*
X110000000Y-63750000D02*
X112500000Y-63750000D01*
X198000000Y-72500000D02*
X198000000Y-79250000D01*
X196750000Y-71250000D02*
X198000000Y-72500000D01*
X207250000Y-71500000D02*
X207250000Y-78250000D01*
X208500000Y-70250000D02*
X207250000Y-71500000D01*
X205750000Y-63750000D02*
X208500000Y-66500000D01*
X200250000Y-63750000D02*
X204250000Y-63750000D01*
X173750000Y-60750000D02*
X176000000Y-60750000D01*
X156250000Y-60750000D02*
X158250000Y-60750000D01*
X137750000Y-60750000D02*
X150250000Y-60750000D01*
X119500000Y-60750000D02*
X130500000Y-60750000D01*
X119250000Y-61000000D02*
X119500000Y-60750000D01*
X208500000Y-66500000D02*
X208500000Y-70250000D01*
X136250000Y-52500000D02*
X134500000Y-54250000D01*
X216750000Y-64250000D02*
X216750000Y-54500000D01*
X216750000Y-65250000D02*
X216750000Y-64250000D01*
X214750000Y-69250000D02*
X214750000Y-65750000D01*
X211500000Y-73000000D02*
X214750000Y-69250000D01*
X211500000Y-78250000D02*
X211500000Y-73000000D01*
X133000000Y-62500000D02*
X131500000Y-62500000D01*
X134500000Y-61000000D02*
X133000000Y-62500000D01*
X134500000Y-56000000D02*
X134500000Y-61000000D01*
X155750000Y-62500000D02*
X160500000Y-67250000D01*
X160500000Y-67250000D02*
X160750000Y-67250000D01*
X170500000Y-69750000D02*
X170500000Y-75000000D01*
X209000000Y-85000000D02*
X173250000Y-85000000D01*
X173250000Y-85000000D02*
X172000000Y-83750000D01*
X172000000Y-83750000D02*
X172000000Y-75000000D01*
X203880000Y-94340000D02*
X205910000Y-94340000D01*
X205910000Y-94340000D02*
X208750000Y-91750000D01*
X173750000Y-77750000D02*
X173250000Y-77250000D01*
X184500000Y-78250000D02*
X177500000Y-78250000D01*
X190500000Y-84250000D02*
X184500000Y-78250000D01*
X216000000Y-84250000D02*
X190500000Y-84250000D01*
X218500000Y-86750000D02*
X216000000Y-84250000D01*
X218500000Y-103750000D02*
X218500000Y-86750000D01*
X218500000Y-104000000D02*
X218500000Y-103750000D01*
X173250000Y-77250000D02*
X173250000Y-63000000D01*
X216750000Y-69250000D02*
X219500000Y-72000000D01*
X190500000Y-64000000D02*
X190500000Y-65250000D01*
X190250000Y-63750000D02*
X190500000Y-64000000D01*
X218250000Y-63750000D02*
X220000000Y-65500000D01*
X220000000Y-65500000D02*
X220250000Y-65500000D01*
X220250000Y-65500000D02*
X222750000Y-68000000D01*
X222750000Y-68000000D02*
X222750000Y-71750000D01*
X222750000Y-62500000D02*
X221500000Y-62500000D01*
X225000000Y-64750000D02*
X222750000Y-62500000D01*
X224250000Y-92250000D02*
X225700000Y-90700000D01*
X223250000Y-93250000D02*
X224250000Y-92250000D01*
X146200000Y-110400000D02*
X146200000Y-110200000D01*
X146200000Y-111600000D02*
X146200000Y-110400000D01*
X148000000Y-113400000D02*
X146200000Y-111600000D01*
X154000000Y-113400000D02*
X148000000Y-113400000D01*
X96400000Y-74600000D02*
X96400000Y-72800000D01*
X108600000Y-86800000D02*
X96400000Y-74600000D01*
X108600000Y-104600000D02*
X108600000Y-86800000D01*
X112400000Y-109400000D02*
X110400000Y-107400000D01*
X145400000Y-109400000D02*
X112400000Y-109400000D01*
X146200000Y-110200000D02*
X145400000Y-109400000D01*
X174750000Y-106500000D02*
X97500000Y-106500000D01*
X97500000Y-106500000D02*
X95000000Y-104800000D01*
X95000000Y-104800000D02*
X95000000Y-98650000D01*
X95500000Y-71250000D02*
X95500000Y-68500000D01*
X94100000Y-77450000D02*
X95500000Y-72750000D01*
X114250000Y-69250000D02*
X113500000Y-68500000D01*
X172000000Y-107750000D02*
X115000000Y-107750000D01*
X113000000Y-103000000D02*
X114250000Y-101750000D01*
X114250000Y-101750000D02*
X114300000Y-89550000D01*
X114250000Y-81500000D02*
X114250000Y-79300000D01*
X114250000Y-76500000D02*
X114250000Y-73250000D01*
X114250000Y-71250000D02*
X114250000Y-69250000D01*
X140500000Y-71750000D02*
X138000000Y-69250000D01*
X140500000Y-99500000D02*
X140500000Y-71750000D01*
X142750000Y-103700000D02*
X140500000Y-99500000D01*
X172000000Y-108750000D02*
X143750000Y-108750000D01*
X149500000Y-68500000D02*
X149500000Y-74000000D01*
X178750000Y-101000000D02*
X178000000Y-100250000D01*
X178000000Y-100250000D02*
X178000000Y-96100000D01*
X178000000Y-96100000D02*
X177500000Y-95600000D01*
X177500000Y-95600000D02*
X175600000Y-95600000D01*
X175600000Y-95600000D02*
X166000000Y-85000000D01*
X142000000Y-85000000D02*
X162500000Y-85000000D01*
X149500000Y-74000000D02*
X146500000Y-77000000D01*
X167500000Y-68500000D02*
X167500000Y-84100000D01*
X189800000Y-98200000D02*
X197400000Y-105800000D01*
X181200000Y-98200000D02*
X189800000Y-98200000D01*
X180200000Y-97200000D02*
X181200000Y-98200000D01*
X171400000Y-88000000D02*
X178800000Y-88000000D01*
X167500000Y-84100000D02*
X171400000Y-88000000D01*
X189000000Y-72750000D02*
X189250000Y-73000000D01*
X189250000Y-73000000D02*
X189250000Y-75000000D01*
X185500000Y-70250000D02*
X185500000Y-68500000D01*
X185500000Y-70250000D02*
X187250000Y-72500000D01*
X193600000Y-83400000D02*
X193600000Y-81700000D01*
X207200000Y-102400000D02*
X206000000Y-101200000D01*
X206000000Y-101200000D02*
X206000000Y-95200000D01*
X206000000Y-83400000D02*
X193600000Y-83400000D01*
X189950000Y-75700000D02*
X189250000Y-75000000D01*
X189950000Y-78050000D02*
X189950000Y-75700000D01*
X193600000Y-81700000D02*
X189950000Y-78050000D01*
X203500000Y-68500000D02*
X203500000Y-74750000D01*
X226500000Y-89500000D02*
X227300000Y-90300000D01*
X212500000Y-75500000D02*
X226500000Y-89500000D01*
X223500000Y-69100000D02*
X223600000Y-69100000D01*
X223600000Y-69100000D02*
X226600000Y-72100000D01*
X89000000Y-67000000D02*
X89000000Y-59000000D01*
X89000000Y-59000000D02*
X87500000Y-57500000D01*
X87500000Y-57500000D02*
X87500000Y-56500000D01*
X89000000Y-69800000D02*
X89000000Y-67000000D01*
X88350000Y-70450000D02*
X89000000Y-69800000D01*
X86150000Y-70450000D02*
X88350000Y-70450000D01*
X83900000Y-72700000D02*
X86150000Y-70450000D01*
X83900000Y-84400000D02*
X83900000Y-72700000D01*
X84600000Y-85100000D02*
X83900000Y-84400000D01*
X88050000Y-85100000D02*
X84600000Y-85100000D01*
X89700000Y-86750000D02*
X88050000Y-85100000D01*
X89700000Y-91850000D02*
X89700000Y-86750000D01*
X104000000Y-58000000D02*
X105500000Y-56500000D01*
X102000000Y-58000000D02*
X104000000Y-58000000D01*
X100500000Y-59500000D02*
X102000000Y-58000000D01*
X100500000Y-71250000D02*
X100500000Y-59500000D01*
X122000000Y-58000000D02*
X123500000Y-56500000D01*
X120000000Y-58000000D02*
X122000000Y-58000000D01*
X118500000Y-59500000D02*
X120000000Y-58000000D01*
X118500000Y-71250000D02*
X118500000Y-59500000D01*
X140000000Y-58000000D02*
X141500000Y-56500000D01*
X139500000Y-58000000D02*
X140000000Y-58000000D01*
X136500000Y-61000000D02*
X139500000Y-58000000D01*
X136500000Y-71000000D02*
X136500000Y-61000000D01*
X136000000Y-71500000D02*
X136500000Y-71000000D01*
X93380000Y-94340000D02*
X93380000Y-94120000D01*
X93380000Y-94120000D02*
X99500000Y-88000000D01*
X99500000Y-88000000D02*
X104000000Y-88000000D01*
X157250000Y-58750000D02*
X159500000Y-56500000D01*
X156750000Y-58750000D02*
X157250000Y-58750000D01*
X155000000Y-60500000D02*
X156750000Y-58750000D01*
X155000000Y-73500000D02*
X155000000Y-60500000D01*
X153500000Y-75000000D02*
X155000000Y-73500000D01*
X122750000Y-84250000D02*
X127750000Y-84250000D01*
X176000000Y-58000000D02*
X177500000Y-56500000D01*
X175000000Y-58000000D02*
X176000000Y-58000000D01*
X172500000Y-59750000D02*
X175000000Y-58000000D01*
X172500000Y-71250000D02*
X172500000Y-59750000D01*
X172000000Y-72500000D02*
X172500000Y-71250000D01*
X194250000Y-57750000D02*
X195500000Y-56500000D01*
X193500000Y-57750000D02*
X194250000Y-57750000D01*
X191250000Y-60000000D02*
X193500000Y-57750000D01*
X191250000Y-73000000D02*
X191250000Y-60000000D01*
X191250000Y-74250000D02*
X191250000Y-73000000D01*
X211750000Y-58250000D02*
X213500000Y-56500000D01*
X211500000Y-58250000D02*
X211750000Y-58250000D01*
X209250000Y-60500000D02*
X211500000Y-58250000D01*
X209250000Y-70750000D02*
X209250000Y-60500000D01*
X208500000Y-71500000D02*
X209250000Y-70750000D01*
X151400000Y-112200000D02*
X152400000Y-111200000D01*
X152400000Y-111200000D02*
X152400000Y-110400000D01*
X179800000Y-103200000D02*
X183580000Y-99420000D01*
X183580000Y-99420000D02*
X184250000Y-99420000D01*
X185600000Y-113600000D02*
X200400000Y-113600000D01*
X200400000Y-113600000D02*
X201800000Y-112200000D01*
X201800000Y-112200000D02*
X201800000Y-111200000D01*
X201800000Y-111200000D02*
X203200000Y-109800000D01*
X203200000Y-109800000D02*
X206400000Y-109800000D01*
X206400000Y-109800000D02*
X209800000Y-106400000D01*
X209800000Y-106400000D02*
X209800000Y-101120000D01*
X209800000Y-101120000D02*
X211500000Y-99420000D01*
X190600000Y-128200000D02*
X191200000Y-128800000D01*
X191200000Y-128800000D02*
X199370000Y-128800000D01*
X199370000Y-128800000D02*
X203250000Y-124920000D01*
X110250000Y-113500000D02*
X109500000Y-113500000D01*
X111750000Y-115000000D02*
X110250000Y-113500000D01*
X108300000Y-113200000D02*
X107500000Y-113200000D01*
X110800000Y-115700000D02*
X108300000Y-113200000D01*
X113800000Y-115700000D02*
X110800000Y-115700000D01*
X124900000Y-121500000D02*
X124900000Y-117200000D01*
X134950000Y-112550000D02*
X134950000Y-111720000D01*
X140500000Y-118100000D02*
X134950000Y-112550000D01*
X144800000Y-118100000D02*
X140500000Y-118100000D01*
X152900000Y-124000000D02*
X152900000Y-122100000D01*
X153700000Y-124800000D02*
X152900000Y-124000000D01*
X158800000Y-114700000D02*
X159600000Y-114700000D01*
X157500000Y-116000000D02*
X158800000Y-114700000D01*
X155900000Y-124100000D02*
X155900000Y-122300000D01*
M02*
