G04 #@! TF.FileFunction,Paste,Top*
%FSLAX46Y46*%
G04 Gerber Fmt 4.6, Leading zero omitted, Abs format (unit mm)*
G04 Created by KiCad (PCBNEW 4.0.4-stable) date Wednesday, November 08, 2017 'PMt' 04:38:46 PM*
%MOMM*%
%LPD*%
G01*
G04 APERTURE LIST*
%ADD10C,0.100000*%
%ADD11R,0.750000X1.200000*%
%ADD12R,1.200000X0.750000*%
%ADD13R,1.250000X1.500000*%
%ADD14R,2.000000X1.700000*%
%ADD15R,1.700000X2.000000*%
G04 APERTURE END LIST*
D10*
D11*
X118400000Y-104450000D03*
X118400000Y-102550000D03*
X145500000Y-104510000D03*
X145500000Y-102610000D03*
X173000000Y-105450000D03*
X173000000Y-103550000D03*
X200000000Y-105450000D03*
X200000000Y-103550000D03*
X192300000Y-130050000D03*
X192300000Y-128150000D03*
X99500000Y-124450000D03*
X99500000Y-122550000D03*
D12*
X106300000Y-107750000D03*
X108200000Y-107750000D03*
D11*
X90600000Y-106850000D03*
X90600000Y-108750000D03*
X117000000Y-111700000D03*
X117000000Y-109800000D03*
X99500000Y-117550000D03*
X99500000Y-119450000D03*
X130000000Y-124450000D03*
X130000000Y-122550000D03*
D12*
X148850000Y-114800000D03*
X150750000Y-114800000D03*
D11*
X148750000Y-111450000D03*
X148750000Y-109550000D03*
X130000000Y-116650000D03*
X130000000Y-118550000D03*
X160400000Y-123150000D03*
X160400000Y-121250000D03*
X178800000Y-115450000D03*
X178800000Y-117350000D03*
X184000000Y-128450000D03*
X184000000Y-130350000D03*
X160500000Y-116800000D03*
X160500000Y-118700000D03*
X100000000Y-130050000D03*
X100000000Y-131950000D03*
D13*
X97500000Y-130250000D03*
X97500000Y-132750000D03*
D11*
X130000000Y-129650000D03*
X130000000Y-127750000D03*
D13*
X127100000Y-129550000D03*
X127100000Y-127050000D03*
D11*
X161400000Y-129550000D03*
X161400000Y-127650000D03*
D13*
X158600000Y-129550000D03*
X158600000Y-127050000D03*
D14*
X134500000Y-91000000D03*
X138500000Y-91000000D03*
X161750000Y-91500000D03*
X165750000Y-91500000D03*
X189500000Y-89500000D03*
X193500000Y-89500000D03*
X216750000Y-90750000D03*
X220750000Y-90750000D03*
X209250000Y-114750000D03*
X213250000Y-114750000D03*
X106500000Y-91000000D03*
X110500000Y-91000000D03*
D15*
X119380000Y-132810000D03*
X119380000Y-128810000D03*
X121900000Y-115700000D03*
X121900000Y-111700000D03*
X149800000Y-131500000D03*
X149800000Y-127500000D03*
X150400000Y-121400000D03*
X150400000Y-117400000D03*
D14*
X179100000Y-133000000D03*
X183100000Y-133000000D03*
X160000000Y-111750000D03*
X156000000Y-111750000D03*
D15*
X116000000Y-96750000D03*
X116000000Y-100750000D03*
D14*
X124250000Y-79500000D03*
X120250000Y-79500000D03*
X126750000Y-82250000D03*
X122750000Y-82250000D03*
X134500000Y-88000000D03*
X138500000Y-88000000D03*
X134500000Y-104500000D03*
X138500000Y-104500000D03*
X134500000Y-94000000D03*
X138500000Y-94000000D03*
X134500000Y-101500000D03*
X138500000Y-101500000D03*
X134500000Y-97000000D03*
X138500000Y-97000000D03*
X150000000Y-83250000D03*
X154000000Y-83250000D03*
X152500000Y-80250000D03*
X156500000Y-80250000D03*
X158000000Y-83250000D03*
X162000000Y-83250000D03*
X161750000Y-88000000D03*
X165750000Y-88000000D03*
X161750000Y-104750000D03*
X165750000Y-104750000D03*
X161750000Y-94750000D03*
X165750000Y-94750000D03*
X161750000Y-101250000D03*
X165750000Y-101250000D03*
X161750000Y-98000000D03*
X165750000Y-98000000D03*
D15*
X172000000Y-96750000D03*
X172000000Y-100750000D03*
D14*
X178250000Y-80000000D03*
X182250000Y-80000000D03*
X181000000Y-83250000D03*
X185000000Y-83250000D03*
X189500000Y-86000000D03*
X193500000Y-86000000D03*
X189500000Y-105000000D03*
X193500000Y-105000000D03*
X189500000Y-93000000D03*
X193500000Y-93000000D03*
X189500000Y-102000000D03*
X193500000Y-102000000D03*
X189500000Y-96250000D03*
X193500000Y-96250000D03*
D15*
X199000000Y-96250000D03*
X199000000Y-100250000D03*
D14*
X205250000Y-79250000D03*
X209250000Y-79250000D03*
X208000000Y-82500000D03*
X212000000Y-82500000D03*
X216750000Y-87500000D03*
X220750000Y-87500000D03*
X216750000Y-105750000D03*
X220750000Y-105750000D03*
X216750000Y-94250000D03*
X220750000Y-94250000D03*
X216750000Y-102000000D03*
X220750000Y-102000000D03*
X216750000Y-97750000D03*
X220750000Y-97750000D03*
D15*
X191000000Y-115750000D03*
X191000000Y-111750000D03*
X191000000Y-124000000D03*
X191000000Y-120000000D03*
X186500000Y-126000000D03*
X186500000Y-130000000D03*
D14*
X191250000Y-108250000D03*
X195250000Y-108250000D03*
X199500000Y-108000000D03*
X203500000Y-108000000D03*
X209250000Y-118500000D03*
X213250000Y-118500000D03*
X209500000Y-126250000D03*
X213500000Y-126250000D03*
X209250000Y-122250000D03*
X213250000Y-122250000D03*
D15*
X89700000Y-93900000D03*
X89700000Y-89900000D03*
D14*
X97000000Y-79500000D03*
X93000000Y-79500000D03*
X99000000Y-82500000D03*
X95000000Y-82500000D03*
X106500000Y-87000000D03*
X110500000Y-87000000D03*
X106500000Y-104500000D03*
X110500000Y-104500000D03*
X106500000Y-94500000D03*
X110500000Y-94500000D03*
X106500000Y-100500000D03*
X110500000Y-100500000D03*
X106500000Y-97500000D03*
X110500000Y-97500000D03*
M02*
