M48
;DRILL file {KiCad 4.0.4-stable} date Wednesday, November 08, 2017 'PMt' 04:39:15 PM
;FORMAT={-:-/ absolute / inch / decimal}
FMAT,2
INCH,TZ
T1C0.016
T2C0.020
T3C0.031
T4C0.039
T5C0.040
%
G90
G05
M72
T1
X3.4744Y-2.8346
X3.4882Y-4.2992
X3.5315Y-3.6161
X3.5433Y-2.5689
X3.5433Y-2.6378
X3.5571Y-3.3346
X3.5925Y-3.3268
X3.5925Y-3.4646
X3.5945Y-3.9606
X3.6063Y-2.3307
X3.622Y-2.8031
X3.622Y-2.8661
X3.6299Y-4.311
X3.6575Y-3.3504
X3.6969Y-4.5197
X3.7047Y-3.0492
X3.7402Y-3.1299
X3.7402Y-3.8839
X3.7598Y-2.8051
X3.7598Y-2.8642
X3.7657Y-3.4626
X3.7815Y-3.3189
X3.7835Y-3.
X3.7953Y-2.8661
X3.8031Y-2.5669
X3.8287Y-2.9035
X3.8583Y-3.8425
X3.8661Y-2.6299
X3.8976Y-2.3327
X3.9272Y-3.378
X3.9331Y-3.3189
X3.9469Y-2.9035
X3.9567Y-2.8051
X4.Y-2.7165
X4.0059Y-2.8346
X4.0354Y-3.2205
X4.0945Y-3.4646
X4.1299Y-3.5118
X4.1575Y-4.2953
X4.1811Y-4.9843
X4.2047Y-4.5906
X4.2126Y-4.2953
X4.2264Y-3.1791
X4.2283Y-3.6496
X4.2323Y-4.4567
X4.252Y-4.6378
X4.2756Y-4.1181
X4.2795Y-3.2087
X4.3012Y-3.0906
X4.311Y-4.4685
X4.315Y-4.5906
X4.3228Y-4.2638
X4.3307Y-2.5098
X4.3465Y-4.2283
X4.3602Y-3.0413
X4.3858Y-3.2303
X4.3858Y-4.2205
X4.3878Y-3.122
X4.3996Y-4.5276
X4.4134Y-4.0669
X4.4173Y-4.1654
X4.4291Y-2.5098
X4.4291Y-3.811
X4.437Y-3.9213
X4.4409Y-3.4252
X4.4409Y-3.5472
X4.4488Y-4.0551
X4.4587Y-3.0984
X4.4606Y-3.6693
X4.4744Y-3.4882
X4.4803Y-4.5551
X4.498Y-2.8051
X4.498Y-2.8839
X4.498Y-3.0118
X4.498Y-3.122
X4.498Y-3.2087
X4.5Y-3.5256
X4.5197Y-4.3465
X4.5276Y-4.2421
X4.5669Y-3.8858
X4.5866Y-4.5276
X4.6142Y-4.7008
X4.6378Y-4.9646
X4.6535Y-3.252
X4.6555Y-3.1614
X4.6654Y-2.8051
X4.6693Y-4.3346
X4.6752Y-3.435
X4.689Y-4.7795
X4.6949Y-2.4016
X4.7047Y-2.6476
X4.7087Y-3.2008
X4.7106Y-3.4646
X4.7559Y-3.2598
X4.7992Y-4.4764
X4.8327Y-3.3169
X4.8465Y-3.3602
X4.8524Y-3.5531
X4.8622Y-3.0118
X4.9173Y-4.6142
X4.9173Y-4.7835
X4.9252Y-3.4291
X4.937Y-3.5276
X4.9705Y-2.9528
X4.9803Y-2.7362
X5.0177Y-3.5591
X5.0197Y-3.4646
X5.0295Y-2.5098
X5.0295Y-3.3169
X5.0689Y-3.6142
X5.0866Y-4.9646
X5.1378Y-2.3917
X5.1378Y-2.5098
X5.1378Y-2.9921
X5.1378Y-3.061
X5.2067Y-3.0217
X5.2953Y-2.1358
X5.2953Y-2.2047
X5.3543Y-2.815
X5.3642Y-2.0669
X5.4213Y-4.9961
X5.4232Y-2.3917
X5.4331Y-2.7264
X5.4409Y-4.7559
X5.4823Y-3.3878
X5.4921Y-3.8976
X5.4961Y-4.811
X5.5118Y-4.2756
X5.5276Y-3.9803
X5.5276Y-4.0945
X5.561Y-3.1791
X5.561Y-3.8976
X5.563Y-3.4449
X5.563Y-3.5709
X5.563Y-3.6772
X5.563Y-3.7953
X5.5669Y-3.3917
X5.5768Y-3.5138
X5.5906Y-3.3465
X5.6102Y-3.1299
X5.6201Y-3.061
X5.6201Y-4.0827
X5.6594Y-2.9921
X5.6594Y-4.2815
X5.6988Y-2.5098
X5.7008Y-4.6496
X5.7579Y-2.2736
X5.7677Y-3.0315
X5.7717Y-3.9449
X5.7874Y-4.3465
X5.811Y-4.9409
X5.8268Y-3.2874
X5.8465Y-2.2736
X5.8858Y-2.9823
X5.8898Y-4.8819
X5.8957Y-3.0315
X5.9055Y-3.6614
X5.9154Y-2.3917
X5.9449Y-3.8071
X5.9606Y-4.4173
X6.Y-4.3465
X6.0039Y-2.9921
X6.0079Y-4.4252
X6.0197Y-4.8071
X6.0236Y-3.0807
X6.0433Y-2.9528
X6.0512Y-4.9134
X6.0531Y-2.815
X6.063Y-3.0315
X6.063Y-4.4646
X6.0728Y-2.5098
X6.0728Y-2.5689
X6.0728Y-3.372
X6.0728Y-3.622
X6.1024Y-2.9921
X6.1319Y-2.4606
X6.1378Y-4.815
X6.1378Y-4.8858
X6.1417Y-3.2579
X6.1476Y-3.311
X6.1516Y-2.3917
X6.1516Y-2.7461
X6.1772Y-4.8189
X6.1772Y-4.8858
X6.2008Y-4.5669
X6.2087Y-3.0709
X6.2303Y-2.3917
X6.2835Y-4.5157
X6.2992Y-3.0709
X6.3287Y-2.6476
X6.3543Y-4.9291
X6.3701Y-3.374
X6.378Y-2.9528
X6.3976Y-3.3465
X6.3976Y-4.6732
X6.4173Y-3.061
X6.4173Y-3.2087
X6.4213Y-3.5354
X6.437Y-4.0551
X6.4469Y-2.2736
X6.4469Y-2.7264
X6.4665Y-2.5098
X6.4744Y-3.5354
X6.5Y-3.3071
X6.5197Y-3.4016
X6.5354Y-3.3465
X6.5551Y-2.2736
X6.5551Y-2.5098
X6.5846Y-3.3583
X6.622Y-3.7008
X6.624Y-2.5689
X6.6417Y-3.8307
X6.6437Y-3.2638
X6.6457Y-3.9843
X6.6831Y-2.5689
X6.6831Y-2.628
X6.7047Y-4.9331
X6.7126Y-2.3327
X6.7126Y-2.7461
X6.7126Y-2.9528
X6.7421Y-3.3839
X6.7638Y-4.7992
X6.7717Y-2.8543
X6.7717Y-2.9528
X6.7717Y-4.2421
X6.7717Y-4.2815
X6.8012Y-3.1004
X6.8031Y-3.685
X6.8209Y-2.4803
X6.8406Y-2.3917
X6.8406Y-3.061
X6.8504Y-3.1004
X6.874Y-4.0984
X6.8799Y-2.5689
X6.8799Y-4.1929
X6.8996Y-3.1201
X6.9193Y-3.1496
X6.9291Y-2.3917
X6.939Y-2.628
X6.9882Y-3.0807
X7.0079Y-3.2579
X7.0374Y-2.2736
X7.0374Y-3.9764
X7.0394Y-3.4646
X7.0472Y-3.5531
X7.0669Y-2.815
X7.0669Y-3.6791
X7.0787Y-4.063
X7.0945Y-3.8268
X7.1555Y-2.5098
X7.1555Y-2.7461
X7.1614Y-3.4173
X7.1752Y-3.4646
X7.2362Y-2.9528
X7.2638Y-2.7461
X7.3071Y-4.4724
X7.3425Y-5.2362
X7.3504Y-3.1102
X7.3602Y-3.4055
X7.372Y-2.8543
X7.4016Y-2.9528
X7.4016Y-3.3031
X7.4114Y-2.8051
X7.4291Y-4.3307
X7.4409Y-2.8642
X7.4409Y-3.1004
X7.4508Y-2.8051
X7.4724Y-4.6417
X7.4902Y-2.5098
X7.5Y-2.5689
X7.5039Y-5.0472
X7.5157Y-3.5945
X7.5295Y-2.9232
X7.5433Y-3.5236
X7.5433Y-4.1417
X7.5472Y-3.4094
X7.5551Y-4.9882
X7.5591Y-2.7067
X7.5768Y-3.7283
X7.5787Y-2.9724
X7.5886Y-3.0709
X7.6772Y-3.2185
X7.687Y-3.8878
X7.6969Y-3.622
X7.6969Y-3.7598
X7.7008Y-3.7165
X7.7067Y-3.002
X7.7165Y-3.9803
X7.7264Y-3.248
X7.7362Y-2.8543
X7.7362Y-2.9724
X7.7461Y-2.7461
X7.7638Y-3.1024
X7.7657Y-3.1398
X7.7717Y-4.1654
X7.7953Y-3.1201
X7.7953Y-5.3425
X7.8031Y-4.4449
X7.8248Y-2.9232
X7.8346Y-2.2736
X7.8346Y-3.8661
X7.8425Y-5.0315
X7.8543Y-2.9429
X7.8839Y-2.5098
X7.8839Y-3.5925
X7.8839Y-4.3228
X7.9035Y-3.4272
X7.9094Y-4.4055
X7.9094Y-4.9646
X7.9409Y-4.0551
X7.9409Y-4.3228
X7.9429Y-3.7815
X7.9429Y-3.8543
X8.0118Y-2.9429
X8.0413Y-2.5098
X8.0945Y-5.2795
X8.1004Y-2.5098
X8.1102Y-3.2835
X8.1102Y-3.748
X8.1201Y-2.8051
X8.1535Y-4.6614
X8.1555Y-3.7205
X8.1575Y-3.628
X8.1575Y-4.0315
X8.1594Y-3.0807
X8.1614Y-3.1378
X8.1791Y-2.7461
X8.1969Y-4.1102
X8.2028Y-4.0374
X8.2087Y-2.815
X8.2185Y-3.6122
X8.2283Y-3.3465
X8.2283Y-4.2736
X8.2461Y-3.5138
X8.2756Y-3.2598
X8.3268Y-3.0807
X8.3661Y-2.9724
X8.3701Y-4.4291
X8.4547Y-2.5886
X8.4803Y-3.6457
X8.5Y-4.7874
X8.5Y-4.9331
X8.5039Y-2.8051
X8.5335Y-2.1457
X8.5335Y-2.5689
X8.5335Y-2.7264
X8.5925Y-2.5098
X8.6024Y-4.0945
X8.6417Y-2.8346
X8.7638Y-3.7087
X8.7697Y-2.8248
X8.7756Y-4.7362
X8.7835Y-3.8071
X8.7894Y-3.6713
X8.7992Y-2.7205
X8.8189Y-3.9803
X8.8583Y-2.5492
X8.8858Y-3.5709
X8.9213Y-2.8386
X8.9488Y-3.5551
T2
X4.1024Y-4.3984
X4.1024Y-4.4984
X4.1024Y-4.5984
X4.1024Y-4.6984
X4.1024Y-4.7984
X4.1024Y-4.8984
X4.1024Y-4.9984
X4.1024Y-5.0984
X4.4488Y-4.3984
X4.4488Y-4.4984
X4.4488Y-4.5984
X4.4488Y-4.6984
X4.4488Y-4.7984
X4.4488Y-4.8984
X4.4488Y-4.9984
X4.4488Y-5.0984
X5.313Y-4.3984
X5.313Y-4.4984
X5.313Y-4.5984
X5.313Y-4.6984
X5.313Y-4.7984
X5.313Y-4.8984
X5.313Y-4.9984
X5.313Y-5.0984
X5.6594Y-4.3984
X5.6594Y-4.4984
X5.6594Y-4.5984
X5.6594Y-4.6984
X5.6594Y-4.7984
X5.6594Y-4.8984
X5.6594Y-4.9984
X5.6594Y-5.0984
X6.5236Y-4.3984
X6.5236Y-4.4984
X6.5236Y-4.5984
X6.5236Y-4.6984
X6.5236Y-4.7984
X6.5236Y-4.8984
X6.5236Y-4.9984
X6.5236Y-5.0984
X6.8701Y-4.3984
X6.8701Y-4.4984
X6.8701Y-4.5984
X6.8701Y-4.6984
X6.8701Y-4.7984
X6.8701Y-4.8984
X6.8701Y-4.9984
X6.8701Y-5.0984
T3
X3.3661Y-2.2244
X3.3661Y-2.4606
X3.3661Y-2.6969
X3.4449Y-2.2244
X3.4449Y-2.4606
X3.4449Y-2.6969
X3.6811Y-2.2244
X3.6811Y-2.4606
X3.6811Y-2.6969
X3.7598Y-2.2244
X3.7598Y-2.4606
X3.7598Y-2.6969
X4.0748Y-2.2244
X4.0748Y-2.4606
X4.0748Y-2.6969
X4.1535Y-2.2244
X4.1535Y-2.4606
X4.1535Y-2.6969
X4.3898Y-2.2244
X4.3898Y-2.4606
X4.3898Y-2.6969
X4.4685Y-2.2244
X4.4685Y-2.4606
X4.4685Y-2.6969
X4.7835Y-2.2244
X4.7835Y-2.4606
X4.7835Y-2.6969
X4.8622Y-2.2244
X4.8622Y-2.4606
X4.8622Y-2.6969
X5.0984Y-2.2244
X5.0984Y-2.4606
X5.0984Y-2.6969
X5.1772Y-2.2244
X5.1772Y-2.4606
X5.1772Y-2.6969
X5.4921Y-2.2244
X5.4921Y-2.4606
X5.4921Y-2.6969
X5.5709Y-2.2244
X5.5709Y-2.4606
X5.5709Y-2.6969
X5.8071Y-2.2244
X5.8071Y-2.4606
X5.8071Y-2.6969
X5.8858Y-2.2244
X5.8858Y-2.4606
X5.8858Y-2.6969
X6.2008Y-2.2244
X6.2008Y-2.4606
X6.2008Y-2.6969
X6.2795Y-2.2244
X6.2795Y-2.4606
X6.2795Y-2.6969
X6.5157Y-2.2244
X6.5157Y-2.4606
X6.5157Y-2.6969
X6.5945Y-2.2244
X6.5945Y-2.4606
X6.5945Y-2.6969
X6.9094Y-2.2244
X6.9094Y-2.4606
X6.9094Y-2.6969
X6.9882Y-2.2244
X6.9882Y-2.4606
X6.9882Y-2.6969
X7.2244Y-2.2244
X7.2244Y-2.4606
X7.2244Y-2.6969
X7.3031Y-2.2244
X7.3031Y-2.4606
X7.3031Y-2.6969
X7.6181Y-2.2244
X7.6181Y-2.4606
X7.6181Y-2.6969
X7.6969Y-2.2244
X7.6969Y-2.4606
X7.6969Y-2.6969
X7.9331Y-2.2244
X7.9331Y-2.4606
X7.9331Y-2.6969
X8.0118Y-2.2244
X8.0118Y-2.4606
X8.0118Y-2.6969
X8.3268Y-2.2244
X8.3268Y-2.4606
X8.3268Y-2.6969
X8.4055Y-2.2244
X8.4055Y-2.4606
X8.4055Y-2.6969
X8.6417Y-2.2244
X8.6417Y-2.4606
X8.6417Y-2.6969
X8.7205Y-2.2244
X8.7205Y-2.4606
X8.7205Y-2.6969
T4
X3.6764Y-3.4142
X3.6764Y-3.5142
X3.6764Y-3.6142
X3.6764Y-3.7142
X3.6764Y-3.8142
X3.6764Y-3.9142
X3.6764Y-4.0142
X3.6764Y-4.1142
X3.9764Y-3.4142
X3.9764Y-3.5142
X3.9764Y-3.6142
X3.9764Y-3.7142
X3.9764Y-3.8142
X3.9764Y-3.9142
X3.9764Y-4.0142
X3.9764Y-4.1142
X4.7689Y-3.4142
X4.7689Y-3.5142
X4.7689Y-3.6142
X4.7689Y-3.7142
X4.7689Y-3.8142
X4.7689Y-3.9142
X4.7689Y-4.0142
X4.7689Y-4.1142
X5.0689Y-3.4142
X5.0689Y-3.5142
X5.0689Y-3.6142
X5.0689Y-3.7142
X5.0689Y-3.8142
X5.0689Y-3.9142
X5.0689Y-4.0142
X5.0689Y-4.1142
X5.8614Y-3.4142
X5.8614Y-3.5142
X5.8614Y-3.6142
X5.8614Y-3.7142
X5.8614Y-3.8142
X5.8614Y-3.9142
X5.8614Y-4.0142
X5.8614Y-4.1142
X6.1614Y-3.4142
X6.1614Y-3.5142
X6.1614Y-3.6142
X6.1614Y-3.7142
X6.1614Y-3.8142
X6.1614Y-3.9142
X6.1614Y-4.0142
X6.1614Y-4.1142
X6.9539Y-3.4142
X6.9539Y-3.5142
X6.9539Y-3.6142
X6.9539Y-3.7142
X6.9539Y-3.8142
X6.9539Y-3.9142
X6.9539Y-4.0142
X6.9539Y-4.1142
X7.2539Y-3.4142
X7.2539Y-3.5142
X7.2539Y-3.6142
X7.2539Y-3.7142
X7.2539Y-3.8142
X7.2539Y-3.9142
X7.2539Y-4.0142
X7.2539Y-4.1142
X7.702Y-4.4181
X7.702Y-4.5181
X7.702Y-4.6181
X7.702Y-4.7181
X7.702Y-4.8181
X7.702Y-4.9181
X7.702Y-5.0181
X7.702Y-5.1181
X8.002Y-4.4181
X8.002Y-4.5181
X8.002Y-4.6181
X8.002Y-4.7181
X8.002Y-4.8181
X8.002Y-4.9181
X8.002Y-5.0181
X8.002Y-5.1181
X8.0268Y-3.4142
X8.0268Y-3.5142
X8.0268Y-3.6142
X8.0268Y-3.7142
X8.0268Y-3.8142
X8.0268Y-3.9142
X8.0268Y-4.0142
X8.0268Y-4.1142
X8.3268Y-3.4142
X8.3268Y-3.5142
X8.3268Y-3.6142
X8.3268Y-3.7142
X8.3268Y-3.8142
X8.3268Y-3.9142
X8.3268Y-4.0142
X8.3268Y-4.1142
T5
X3.3898Y-3.
X3.3898Y-3.1
X3.3898Y-3.2
X3.3898Y-3.3
X3.3898Y-3.4
X3.3898Y-3.5
X3.3898Y-3.6
X3.3898Y-3.7
X3.3898Y-3.8
X3.3898Y-3.9
X3.3898Y-4.
X3.3898Y-4.1
X3.5433Y-4.9394
X3.5433Y-5.0394
X5.0756Y-5.437
X5.1756Y-5.437
X5.2756Y-5.437
X5.3756Y-5.437
X5.4756Y-5.437
X5.5756Y-5.437
X5.6756Y-5.437
X5.7756Y-5.437
X5.8756Y-5.437
X5.9756Y-5.437
X6.0756Y-5.437
X6.1756Y-5.437
X6.2756Y-5.437
X6.3756Y-5.437
X6.4756Y-5.437
X6.5756Y-5.437
X6.6756Y-5.437
X6.7756Y-5.437
T0
M30
